<mxfile host="app.diagrams.net" modified="2023-05-06T05:38:15.231Z" agent="Mozilla/5.0 (Windows NT 10.0; Win64; x64) AppleWebKit/537.36 (KHTML, like Gecko) Chrome/109.0.0.0 Safari/537.36" etag="1Yxp3c34Vai0zAGaerhk" version="21.2.9" type="github">
  <diagram id="prtHgNgQTEPvFCAcTncT" name="Page-1">
    <mxGraphModel dx="1050" dy="549" grid="1" gridSize="10" guides="1" tooltips="1" connect="1" arrows="1" fold="1" page="1" pageScale="1" pageWidth="827" pageHeight="1169" math="0" shadow="0">
      <root>
        <mxCell id="0" />
        <mxCell id="1" parent="0" />
        <mxCell id="FtJ2-J3hjAPhUDArtuME-80" value="地理模型库管理系统GeoMBMS" style="rounded=1;fillColor=#10739E;strokeColor=none;shadow=1;gradientColor=none;fontStyle=1;fontColor=#FFFFFF;fontSize=14;" parent="1" vertex="1">
          <mxGeometry x="60" y="720" width="220" height="60" as="geometry" />
        </mxCell>
        <mxCell id="FtJ2-J3hjAPhUDArtuME-81" value="用户系统" style="rounded=1;fillColor=#10739E;strokeColor=none;shadow=1;gradientColor=none;fontStyle=1;fontColor=#FFFFFF;fontSize=14;" parent="1" vertex="1">
          <mxGeometry x="360" y="540" width="200" height="60" as="geometry" />
        </mxCell>
        <mxCell id="FtJ2-J3hjAPhUDArtuME-82" value="地图可视化" style="rounded=1;fillColor=#10739E;strokeColor=none;shadow=1;gradientColor=none;fontStyle=1;fontColor=#FFFFFF;fontSize=14;" parent="1" vertex="1">
          <mxGeometry x="360" y="670" width="200" height="60" as="geometry" />
        </mxCell>
        <mxCell id="FtJ2-J3hjAPhUDArtuME-83" value="模型库管理" style="rounded=1;fillColor=#10739E;strokeColor=none;shadow=1;gradientColor=none;fontStyle=1;fontColor=#FFFFFF;fontSize=14;" parent="1" vertex="1">
          <mxGeometry x="360" y="800" width="200" height="60" as="geometry" />
        </mxCell>
        <mxCell id="FtJ2-J3hjAPhUDArtuME-94" value="用户登录注册退出" style="rounded=1;fillColor=#10739E;strokeColor=none;shadow=1;gradientColor=none;fontStyle=1;fontColor=#FFFFFF;fontSize=14;" parent="1" vertex="1">
          <mxGeometry x="640" y="520" width="200" height="60" as="geometry" />
        </mxCell>
        <mxCell id="FtJ2-J3hjAPhUDArtuME-99" value="编辑个人信息" style="rounded=1;fillColor=#10739E;strokeColor=none;shadow=1;gradientColor=none;fontStyle=1;fontColor=#FFFFFF;fontSize=14;" parent="1" vertex="1">
          <mxGeometry x="640" y="600" width="200" height="60" as="geometry" />
        </mxCell>
        <mxCell id="FtJ2-J3hjAPhUDArtuME-105" value="" style="edgeStyle=elbowEdgeStyle;elbow=vertical;strokeWidth=4;endArrow=block;endFill=1;fontStyle=1;strokeColor=#23445D;rounded=0;" parent="1" source="FtJ2-J3hjAPhUDArtuME-80" target="FtJ2-J3hjAPhUDArtuME-82" edge="1">
          <mxGeometry x="-240" y="-20" width="100" height="100" as="geometry">
            <mxPoint x="-240" y="80" as="sourcePoint" />
            <mxPoint x="-140" y="-20" as="targetPoint" />
          </mxGeometry>
        </mxCell>
        <mxCell id="FtJ2-J3hjAPhUDArtuME-106" value="" style="edgeStyle=elbowEdgeStyle;elbow=vertical;strokeWidth=4;endArrow=block;endFill=1;fontStyle=1;strokeColor=#23445D;rounded=0;exitX=1;exitY=0.5;exitDx=0;exitDy=0;entryX=0;entryY=0.5;entryDx=0;entryDy=0;" parent="1" source="FtJ2-J3hjAPhUDArtuME-80" target="FtJ2-J3hjAPhUDArtuME-81" edge="1">
          <mxGeometry x="-240" y="-20" width="100" height="100" as="geometry">
            <mxPoint x="-240" y="80" as="sourcePoint" />
            <mxPoint x="290" y="550" as="targetPoint" />
            <Array as="points">
              <mxPoint x="320" y="630" />
              <mxPoint x="320" y="670" />
              <mxPoint x="310" y="670" />
              <mxPoint x="320" y="670" />
              <mxPoint x="260" y="560" />
            </Array>
          </mxGeometry>
        </mxCell>
        <mxCell id="FtJ2-J3hjAPhUDArtuME-107" value="" style="edgeStyle=elbowEdgeStyle;elbow=vertical;strokeWidth=4;endArrow=block;endFill=1;fontStyle=1;strokeColor=#23445D;rounded=0;entryX=0;entryY=0.5;entryDx=0;entryDy=0;" parent="1" target="FtJ2-J3hjAPhUDArtuME-83" edge="1">
          <mxGeometry x="-240" y="-20" width="100" height="100" as="geometry">
            <mxPoint x="280" y="750" as="sourcePoint" />
            <mxPoint x="-140" y="-20" as="targetPoint" />
          </mxGeometry>
        </mxCell>
        <mxCell id="FtJ2-J3hjAPhUDArtuME-132" value="模型应用" style="rounded=1;fillColor=#10739E;strokeColor=none;shadow=1;gradientColor=none;fontStyle=1;fontColor=#FFFFFF;fontSize=14;" parent="1" vertex="1">
          <mxGeometry x="360" y="920" width="200" height="60" as="geometry" />
        </mxCell>
        <mxCell id="FtJ2-J3hjAPhUDArtuME-133" value="" style="edgeStyle=elbowEdgeStyle;elbow=vertical;strokeWidth=4;endArrow=block;endFill=1;fontStyle=1;strokeColor=#23445D;rounded=0;entryX=0;entryY=0.5;entryDx=0;entryDy=0;" parent="1" source="FtJ2-J3hjAPhUDArtuME-80" target="FtJ2-J3hjAPhUDArtuME-132" edge="1">
          <mxGeometry x="-240" y="-20" width="100" height="100" as="geometry">
            <mxPoint x="510" y="220" as="sourcePoint" />
            <mxPoint x="950" y="270" as="targetPoint" />
            <Array as="points">
              <mxPoint x="260" y="950" />
            </Array>
          </mxGeometry>
        </mxCell>
      </root>
    </mxGraphModel>
  </diagram>
</mxfile>
